<?xml version="1.0" standalone="no"?>
<!DOCTYPE svg PUBLIC "-//W3C//DTD SVG 20010904//EN"
 "http://www.w3.org/TR/2001/REC-SVG-20010904/DTD/svg10.dtd">
<svg version="1.0" xmlns="http://www.w3.org/2000/svg"
 width="758.000000pt" height="980.000000pt" viewBox="0 0 758.000000 980.000000"
 preserveAspectRatio="xMidYMid meet">

<g transform="translate(0.000000,980.000000) scale(0.100000,-0.100000)"
fill="#000000" stroke="none">
<path d="M10 4900 l0 -4900 2928 0 2928 0 665 667 c741 745 968 984 1009 1062
8 16 15 130 21 370 10 418 12 4072 2 6179 l-6 1522 -3774 0 -3773 0 0 -4900z
m7148 868 l-3 -3623 -852 -3 -853 -2 0 -865 0 -865 -2515 0 -2515 0 0 4490 0
4490 3370 0 3370 0 -2 -3622z m-230 -4044 c23 -3 42 -10 42 -16 0 -6 -250
-261 -555 -567 -446 -446 -557 -553 -567 -543 -19 19 -19 1095 0 1114 9 9 68
15 205 19 206 7 804 2 875 -7z"/>
<path d="M2850 8525 c-30 -8 -98 -36 -150 -62 -79 -38 -110 -61 -181 -132 -71
-72 -93 -102 -132 -181 -57 -117 -77 -210 -84 -395 -12 -302 44 -477 207 -649
79 -83 163 -136 275 -173 72 -24 95 -27 230 -27 130 -1 160 2 225 22 204 64
335 192 410 400 20 54 21 65 9 77 -12 11 -57 27 -261 91 -13 4 -27 -16 -62
-89 -78 -163 -178 -232 -336 -231 -91 0 -164 30 -235 95 -102 94 -137 205
-138 439 0 181 15 269 64 361 41 76 114 142 181 165 72 24 260 25 304 1 34
-18 123 -111 162 -169 13 -21 33 -40 44 -44 43 -13 211 29 258 65 l24 19 -17
54 c-31 98 -170 249 -279 302 -131 64 -395 95 -518 61z"/>
<path d="M3833 8510 c-13 -5 -23 -12 -23 -14 0 -12 209 -609 372 -1063 l181
-503 176 0 176 0 119 333 c196 547 314 882 376 1065 l59 173 -25 9 c-14 6 -87
10 -163 10 l-137 0 -124 -377 c-126 -385 -256 -762 -264 -770 -11 -11 -54 100
-180 468 -74 217 -156 457 -184 534 l-49 140 -144 2 c-79 1 -154 -2 -166 -7z"/>
<path d="M1540 5535 l0 -205 2245 0 2245 0 0 205 0 205 -2245 0 -2245 0 0
-205z"/>
<path d="M1540 4235 l0 -205 2245 0 2245 0 0 205 0 205 -2245 0 -2245 0 0
-205z"/>
<path d="M1540 2960 l0 -200 2245 0 2245 0 0 200 0 200 -2245 0 -2245 0 0
-200z"/>
</g>
</svg>
